<svg width="200" height="200" viewBox="0 0 200 200" fill="none" xmlns="http://www.w3.org/2000/svg">
<rect width="200" height="200" rx="65" fill="#1E2A4B"/>
<path d="M25.9039 102.716L26.6359 102.907C28.1767 141.446 59.066 172.335 97.6047 173.876L97.7954 174.608C98.086 175.729 99.0977 176.512 100.256 176.512C101.414 176.512 102.426 175.729 102.716 174.608L102.907 173.876C141.446 172.335 172.335 141.446 173.876 102.907L174.608 102.716C175.729 102.426 176.512 101.414 176.512 100.256C176.512 99.0977 175.729 98.086 174.608 97.7954L173.876 97.6047C172.335 59.066 141.446 28.1767 102.907 26.6359L102.716 25.9039C102.426 24.7829 101.414 24 100.256 24C99.0977 24 98.086 24.7829 97.7954 25.9039L97.6047 26.6359C59.066 28.1767 28.1767 59.066 26.6359 97.6047L25.9039 97.7954C24.7829 98.086 24 99.0977 24 100.256C24 101.414 24.7829 102.426 25.9039 102.716ZM104.246 168.744L105.611 163.513C112.105 162.988 118.477 161.456 124.499 158.971C124.525 158.971 124.55 158.971 124.573 158.955C124.596 158.94 124.616 158.922 124.644 158.91C132.326 155.731 139.305 151.067 145.179 145.184C151.054 139.318 155.712 132.35 158.887 124.68C158.905 124.644 158.933 124.616 158.948 124.578C158.963 124.54 158.948 124.53 158.963 124.504C161.445 118.481 162.974 112.109 163.498 105.616L168.729 104.251C166.56 138.928 138.922 166.57 104.246 168.744ZM120.033 52.5061C120.656 52.7644 121.356 52.7647 121.979 52.5068C122.602 52.2489 123.097 51.754 123.355 51.131L124.926 47.3412C130.332 49.8506 135.318 53.1788 139.709 57.2084C140.232 58.0071 141.203 58.4031 141.436 59.2917C140.547 59.0591 141.656 59.3492 141.436 59.2917C142.325 59.5243 143.357 61.4632 143.995 60.8024H143.303C147.333 65.1936 150.661 70.1798 153.17 75.5854L149.381 77.1562C148.084 77.6931 147.467 79.1799 148.004 80.477C148.541 81.7741 150.028 82.3903 151.325 81.8534L155.138 80.2749C156.707 84.5552 157.763 89.0064 158.284 93.5354L126.474 85.239L135.536 68.4176C136.066 67.4297 135.886 66.2111 135.093 65.4184C134.3 64.6256 133.082 64.4459 132.094 64.976L115.273 74.0374L106.976 42.2323C111.505 42.7542 115.956 43.8104 120.237 45.379L118.658 49.1916C118.125 50.4866 118.74 51.9687 120.033 52.5061ZM116.269 87.8316L122.046 89.3389L122.115 89.3567L154.154 97.714H106.392L116.269 87.8316ZM154.154 102.798L116.269 112.68L106.392 102.798H154.154ZM132.086 135.536C133.074 136.066 134.293 135.886 135.086 135.093C135.878 134.3 136.058 133.082 135.528 132.094L126.467 115.273L158.272 106.976C157.75 111.505 156.694 115.956 155.125 120.237L151.312 118.658C150.015 118.121 148.528 118.738 147.992 120.035C147.455 121.332 148.071 122.818 149.368 123.355L153.158 124.926C150.648 130.332 147.32 135.318 143.291 139.709L142.708 139.127C143.543 139.432 142.567 140.526 141.586 141.506C140.606 142.487 138.215 143.881 139.178 144.878L139.696 143.303C135.305 147.333 130.319 150.661 124.914 153.17L123.343 149.381C122.806 148.084 121.319 147.467 120.022 148.004C118.725 148.541 118.109 150.028 118.646 151.325L120.224 155.138C115.944 156.707 111.492 157.763 106.964 158.284L115.26 126.479L132.086 135.536ZM168.744 96.2652L163.513 94.9003C162.988 88.406 161.455 82.033 158.971 76.0099C158.971 75.987 158.971 75.9616 158.955 75.9387C158.94 75.9158 158.922 75.8955 158.91 75.8701C155.732 68.1869 151.068 61.2074 145.184 55.3325C139.31 49.4483 132.33 44.7836 124.647 41.607C124.621 41.607 124.606 41.5714 124.578 41.5612C124.55 41.5511 124.53 41.5612 124.504 41.546C118.481 39.0645 112.109 37.5347 105.616 37.0115L104.246 31.7678C138.93 33.935 166.577 61.5816 168.744 96.2652ZM102.798 46.3703L112.68 84.2426L102.798 94.12V46.3703ZM102.798 106.404L112.68 116.269L102.798 154.154V106.404ZM97.714 154.154L87.8316 116.269L97.714 106.392V154.154ZM80.4783 148.006C79.8554 147.747 79.1554 147.747 78.5324 148.005C77.9093 148.263 77.4143 148.758 77.1562 149.381L75.5854 153.17C70.1797 150.661 65.1934 147.333 60.8024 143.303L59.6778 142.344C60.8024 142.986 59.4539 142.2 58.4735 141.22C57.493 140.239 57.3633 138.746 56.3659 139.709H57.2084C53.179 135.318 49.8508 130.332 47.3412 124.926L51.131 123.355C52.4281 122.818 53.0443 121.332 52.5074 120.035C51.9704 118.738 50.4836 118.121 49.1865 118.658L45.3739 120.237C43.8048 115.956 42.7485 111.505 42.2272 106.976L74.0324 115.273L64.976 132.094C64.4459 133.082 64.6256 134.3 65.4184 135.093C66.2111 135.886 67.4297 136.066 68.4176 135.536L85.239 126.474L93.5354 158.279C89.0065 157.757 84.5554 156.701 80.2749 155.133L81.8534 151.32C82.3863 150.025 81.7714 148.543 80.4783 148.006ZM51.131 77.1562L47.3412 75.5854C49.8506 70.1797 53.1788 65.1934 57.2084 60.8024C57.4351 61.0929 56.3813 61.0929 59.0909 58.9706C60.0714 57.9901 61.4091 57.2729 60.4459 56.2756L60.8024 57.2084C65.1936 53.179 70.1798 49.8508 75.5854 47.3412L77.1562 51.131C77.6931 52.4281 79.1799 53.0443 80.477 52.5074C81.7741 51.9704 82.3903 50.4836 81.8534 49.1865L80.2749 45.3739C84.5552 43.8048 89.0064 42.7485 93.5354 42.2272L85.239 74.0374L68.4176 64.976C67.4297 64.4459 66.2111 64.6256 65.4184 65.4184C64.6256 66.2111 64.4459 67.4297 64.976 68.4176L74.0374 85.239L42.2323 93.5354C42.7542 89.0065 43.8104 84.5554 45.379 80.2749L49.1916 81.8534C50.0307 82.2007 50.9913 82.0741 51.7117 81.5211C52.432 80.9681 52.8026 80.0728 52.6839 79.1725C52.5652 78.2721 51.9701 77.5035 51.131 77.1562ZM46.3703 102.798H94.12L84.2426 112.68L46.3703 102.798ZM83.93 121.411L82.926 116.594H79.1134L82.926 117.591L83.93 121.411ZM46.3703 97.714L78.3966 89.3567L78.4652 89.3389L84.2426 87.8316L94.12 97.714H46.3703ZM83.4016 83.5067L83.93 79.1006L82.9336 82.9133L79.121 83.9097L83.4016 83.5067ZM97.714 46.3703V94.12L87.8316 84.2426L97.714 46.3703ZM96.2652 31.7805L94.9003 37.0115C88.4067 37.5325 82.0337 39.0606 76.0099 41.5409C75.987 41.5409 75.9616 41.5409 75.9387 41.5561C75.9158 41.5714 75.8955 41.5892 75.8675 41.6019C68.1854 44.7802 61.2069 49.4446 55.3325 55.3275C49.4483 61.2016 44.7836 68.1813 41.607 75.865C41.607 75.8904 41.5714 75.9056 41.5612 75.9336C41.5511 75.9616 41.5612 75.9819 41.546 76.0073C39.0645 82.0301 37.5347 88.4023 37.0115 94.8952L31.7805 96.2601C33.9494 61.583 61.5883 33.9408 96.2652 31.7678V31.7805ZM36.9987 105.611C37.5238 112.106 39.0562 118.479 41.5409 124.502C41.5409 124.525 41.5409 124.55 41.5561 124.573C41.5753 124.609 41.5965 124.644 41.6197 124.677C44.7945 132.346 49.4519 139.314 55.3249 145.179C61.1991 151.063 68.1788 155.728 75.8624 158.905C75.8878 158.917 75.9031 158.94 75.9311 158.95C75.959 158.961 75.9819 158.95 76.0073 158.966C82.0293 161.447 88.4005 162.977 94.8927 163.5L96.2576 168.731C61.5815 166.561 33.9407 138.922 31.7678 104.246L36.9987 105.611Z" fill="#50C4ED"/>
</svg>
